<svg id="Calque_1" data-name="Calque 1" xmlns="http://www.w3.org/2000/svg" viewBox="0 0 262 506.2"><defs><style>.cls-1{fill:#f44d5d;}.cls-2,.cls-4{fill:#fff;}.cls-2,.cls-3,.cls-7{opacity:0.7;}.cls-5{fill:#b23d5e;}.cls-6{fill:#d64964;}.cls-7,.cls-8{fill:none;stroke-miterlimit:10;stroke-width:12px;}.cls-7{stroke:#fff;}.cls-8{stroke:#000;}</style></defs><title>gem</title><polygon class="cls-1" points="89.31 370.68 129.99 410.1 209.99 332.6 209.99 262.98 89.31 370.68"/><polygon class="cls-1" points="129.99 100.1 49.99 177.6 49.99 284.98 191.44 159.63 129.99 100.1"/><polygon class="cls-1" points="49.99 309.03 49.99 332.6 50.42 333.01 209.99 190.6 209.99 177.6 204.41 172.19 49.99 309.03"/><polygon class="cls-1" points="191.44 159.63 49.99 284.98 49.99 309.03 204.41 172.19 191.44 159.63"/><polygon class="cls-2" points="193.95 162.63 52.51 287.98 52.51 312.03 206.92 175.19 193.95 162.63"/><polygon class="cls-1" points="209.99 190.6 50.42 333.01 89.31 370.68 209.99 262.98 209.99 190.6"/><polygon class="cls-2" points="209.99 190.6 57.53 326.67 94.48 366.06 209.99 262.98 209.99 190.6"/><polygon class="cls-1" points="55.51 328.34 5.51 378.34 130.51 503.34 130.51 403.34 55.51 328.34"/><g class="cls-3"><path class="cls-4" d="M422.76,591.24l31,31c5.47,5.47,13.95-3,8.48-8.48l-31-31c-5.47-5.47-13.95,3-8.48,8.48Z" transform="translate(-370.49 -175.66)"/></g><g class="cls-3"><path class="cls-4" d="M378.76,547.24l22.33,22.34c5.47,5.46,14-3,8.49-8.49l-22.34-22.33c-5.47-5.47-13.95,3-8.48,8.48Z" transform="translate(-370.49 -175.66)"/></g><polygon class="cls-1" points="55.51 178.34 5.51 128.34 130.51 3.34 130.51 103.34 55.51 178.34"/><polygon class="cls-5" points="203.51 328.34 253.51 378.34 253.51 128.34 203.51 178.34 203.51 328.34"/><polygon class="cls-6" points="130.51 103.34 130.51 3.34 255.51 128.34 205.51 178.34 130.51 103.34"/><polygon class="cls-1" points="5.51 128.34 5.51 218.71 52.69 175.53 5.51 128.34"/><polygon class="cls-1" points="55.51 190.27 5.51 236.04 5.51 251.08 55.51 205.31 55.51 190.27"/><polygon class="cls-1" points="6.31 296.09 5.51 295.21 5.51 378.34 55.51 328.34 55.51 251.07 6.31 296.09"/><polygon class="cls-1" points="55.51 251.07 55.51 205.31 5.51 251.08 5.51 295.21 6.31 296.09 55.51 251.07"/><polygon class="cls-1" points="55.51 178.34 52.69 175.53 5.51 218.71 5.51 236.04 55.51 190.27 55.51 178.34"/><path class="cls-2" d="M426,371.93V360l-2.81-2.81L393.5,384.36V316c0-7.72-12-7.73-12,0v79.34l-5.5,5v17.32l5.5-5v12l-5.5,5v44.13l.81.88,4.69-4.29v69.21c0,7.72,12,7.73,12,0v-80.2L426,429.73V384l-32.5,29.75v-12Z" transform="translate(-370.49 -175.66)"/><polygon class="cls-6" points="130.51 503.34 130.51 403.34 205.51 328.34 255.51 378.34 130.51 503.34"/><polyline class="cls-7" points="13.42 137.93 124.01 27.34 124.01 107.34"/><path class="cls-8" d="M376.49,306.66v244.2a7,7,0,0,0,2.05,4.95l118,118a7,7,0,0,0,9.9,0l118-118a7,7,0,0,0,2-4.95V306.66a7,7,0,0,0-2-5l-118-118a7,7,0,0,0-9.9,0l-118,118A7,7,0,0,0,376.49,306.66Z" transform="translate(-370.49 -175.66)"/><path d="M582.49,405.67V359.85c0-3.06.08-6.06-1.35-8.9-1.2-2.39-3.09-4.12-4.95-6l-18.85-18.85-15.73-15.73c-5.47-5.47-14,3-8.49,8.49l31.68,31.67c2.88,2.88,5.69,4.43,5.69,8.55v46.57c0,7.72,12,7.73,12,0Z" transform="translate(-370.49 -175.66)"/><path d="M432.58,443V390c0-7.72-12-7.73-12,0v53c0,7.72,12,7.73,12,0Z" transform="translate(-370.49 -175.66)"/><path d="M582.49,502V434.33c0-7.72-12-7.73-12,0V502c0,7.72,12,7.73,12,0Z" transform="translate(-370.49 -175.66)"/><path d="M549.5,540.83l13.74-13.59c5.5-5.43-3-13.92-8.48-8.48L541,532.34c-5.5,5.44,3,13.93,8.49,8.49Z" transform="translate(-370.49 -175.66)"/><path d="M420.49,461c0,12.78-.2,25.58,0,38.36.16,9.83,9.21,16.09,15.65,22.53l35.22,35.22c6.94,6.94,13.63,14.37,20.94,20.94a13.37,13.37,0,0,0,18.39,0c1.9-1.7,3.64-3.64,5.45-5.45L531.7,557c5.47-5.47-3-14-8.48-8.49L511,560.8c-1.78,1.78-7.55,9.74-10.27,8.68-2-.79-4.61-4.61-6.11-6.11L480.82,549.6l-33.05-33.05L436,504.76c-1.41-1.41-3-2.5-3.49-4.41-.58-2.38,0-5.66,0-8.1V461c0-7.72-12-7.73-12,0Z" transform="translate(-370.49 -175.66)"/><path d="M420.49,352.33V369c0,7.72,12,7.73,12,0V352.33c0-7.72-12-7.73-12,0Z" transform="translate(-370.49 -175.66)"/><path d="M491.3,278.47l-48.54,47.29c-5.54,5.4,2.95,13.88,8.48,8.48L499.79,287c5.54-5.4-3-13.88-8.49-8.48Z" transform="translate(-370.49 -175.66)"/><path d="M580.24,358.24l50-50c5.47-5.47-3-13.95-8.48-8.48l-50,50c-5.47,5.47,3,13.95,8.48,8.48l50-50c5.47-5.47-3-13.95-8.48-8.48l-50,50C566.29,355.23,574.77,363.71,580.24,358.24Z" transform="translate(-370.49 -175.66)"/><path d="M507,244V182c0-7.72-12-7.73-12,0v62c0,7.72,12,7.73,12,0Z" transform="translate(-370.49 -175.66)"/><path d="M375.76,312.24l29,29c5.47,5.47,13.95-3,8.48-8.48l-29-29c-5.47-5.47-13.95,3-8.48,8.48Z" transform="translate(-370.49 -175.66)"/><path d="M421.76,499.76l-48,46c-5.59,5.35,2.9,13.83,8.48,8.48l48-46c5.59-5.35-2.9-13.83-8.48-8.48l-48,46c-5.59,5.35,2.9,13.83,8.48,8.48l48-46C435.83,502.89,427.34,494.41,421.76,499.76Z" transform="translate(-370.49 -175.66)"/><path d="M495,579v93c0,7.72,12,7.73,12,0V579c0-7.72-12-7.73-12,0v93c0,7.72,12,7.73,12,0V579C507,571.28,495,571.27,495,579Z" transform="translate(-370.49 -175.66)"/><path d="M630.24,549.76l-37.33-37.34c-5.47-5.46-14,3-8.49,8.49l37.34,37.33c5.47,5.47,14-3,8.48-8.48Z" transform="translate(-370.49 -175.66)"/><path class="cls-8" d="M493,274" transform="translate(-370.49 -175.66)"/></svg>