<svg id="Calque_1" data-name="Calque 1" xmlns="http://www.w3.org/2000/svg" viewBox="0 0 48.92 76.69"><defs><style>.cls-1{fill:#f75987;}</style></defs><title>gem2</title><polygon class="cls-1" points="12.35 28.57 12.35 48.12 24.46 57.9 36.56 48.12 36.56 28.57 24.46 18.79 12.35 28.57"/><polygon class="cls-1" points="48.92 55.33 48.92 20.91 39.36 28.47 39.36 47.74 48.92 55.33"/><polygon class="cls-1" points="22.89 0.11 1.32 17.53 10.96 25.18 22.89 15.55 22.89 0.11"/><polygon class="cls-1" points="47.97 17.83 25.89 0 25.89 15.44 38.31 25.47 47.97 17.83"/><polygon class="cls-1" points="0 20.31 0 55.76 9.56 48.2 9.56 27.9 0 20.31"/><polygon class="cls-1" points="25.89 76.69 48.25 58.63 38.61 50.98 25.89 61.25 25.89 76.69"/><polygon class="cls-1" points="0.93 58.84 22.89 76.58 22.89 61.14 10.59 51.21 0.93 58.84"/></svg>